<svg xmlns="http://www.w3.org/2000/svg" xmlns:xlink="http://www.w3.org/1999/xlink" width="1500" zoomAndPan="magnify" viewBox="0 0 1125 374.999991" height="500" preserveAspectRatio="xMidYMid meet" version="1.0"><defs><g/><clipPath id="b0caf97a4d"><path d="M 232.203125 86.78125 L 433.953125 86.78125 L 433.953125 288.53125 L 232.203125 288.53125 Z M 232.203125 86.78125 " clip-rule="nonzero"/></clipPath><clipPath id="91a4af1fd4"><path d="M 234 88.390625 L 431 88.390625 L 431 286 L 234 286 Z M 234 88.390625 " clip-rule="nonzero"/></clipPath><clipPath id="2168c43f05"><rect x="0" width="134" y="0" height="122"/></clipPath><clipPath id="c9e3225612"><rect x="0" width="264" y="0" height="116"/></clipPath></defs><g clip-path="url(#b0caf97a4d)"><path fill="#ffb742" d="M 332.921875 86.78125 C 277.191406 86.78125 232.203125 131.769531 232.203125 187.496094 C 232.203125 243.226562 277.191406 288.214844 332.921875 288.214844 C 388.648438 288.214844 433.636719 243.226562 433.636719 187.496094 C 433.636719 131.769531 388.648438 86.78125 332.921875 86.78125 Z M 332.921875 279.261719 C 282.339844 279.261719 241.15625 238.078125 241.15625 187.496094 C 241.15625 136.914062 282.339844 95.734375 332.921875 95.734375 C 383.503906 95.734375 424.683594 136.914062 424.683594 187.496094 C 424.683594 238.078125 383.503906 279.261719 332.921875 279.261719 Z M 332.921875 279.261719 " fill-opacity="1" fill-rule="nonzero"/></g><g clip-path="url(#91a4af1fd4)"><path fill="#ffb742" d="M 264.539062 200.902344 C 264.066406 198.597656 263.703125 196.265625 263.464844 193.933594 C 263.21875 191.542969 263.097656 189.183594 263.097656 186.875 C 263.097656 178.691406 264.550781 170.621094 267.324219 163.03125 C 270.101562 155.441406 274.199219 148.335938 279.492188 142.078125 L 283.296875 145.296875 C 278.382812 151.113281 274.582031 157.699219 272.007812 164.730469 C 269.4375 171.761719 268.09375 179.25 268.09375 186.875 C 268.09375 189.109375 268.203125 191.296875 268.417969 193.421875 C 268.640625 195.605469 268.972656 197.765625 269.417969 199.910156 Z M 273.902344 245.5 C 262.835938 234.433594 255.355469 220.71875 251.875 206.058594 C 248.386719 191.402344 248.894531 175.792969 253.792969 160.929688 L 261.378906 163.425781 C 256.949219 176.855469 256.496094 190.96875 259.644531 204.21875 C 262.796875 217.464844 269.554688 229.855469 279.550781 239.855469 Z M 341.074219 269.328125 C 330.066406 270.46875 319.070312 269.390625 308.695312 266.273438 C 298.316406 263.160156 288.535156 257.992188 279.964844 250.96875 L 285.019531 244.820312 C 292.730469 251.144531 301.570312 255.800781 310.972656 258.625 C 320.375 261.445312 330.324219 262.425781 340.261719 261.394531 Z M 249.246094 217.453125 C 243.476562 201.738281 242.382812 185.0625 245.582031 169.257812 C 248.789062 153.457031 256.296875 138.523438 267.734375 126.292969 L 269.1875 127.648438 C 258.007812 139.601562 250.664062 154.195312 247.535156 169.644531 C 244.40625 185.089844 245.476562 201.394531 251.117188 216.765625 Z M 285.746094 111.507812 C 288.320312 109.910156 290.957031 108.453125 293.644531 107.144531 C 296.339844 105.828125 299.117188 104.648438 301.945312 103.605469 C 311.773438 100 322.09375 98.183594 332.417969 98.171875 C 342.734375 98.164062 353.054688 99.953125 362.890625 103.535156 L 362.210938 105.410156 C 352.585938 101.902344 342.496094 100.15625 332.417969 100.164062 C 322.335938 100.175781 312.246094 101.949219 302.628906 105.480469 C 299.875 106.496094 297.164062 107.648438 294.515625 108.9375 C 291.855469 110.234375 289.273438 111.660156 286.789062 113.203125 Z M 374.9375 108.972656 C 379.605469 111.515625 384.03125 114.460938 388.140625 117.777344 C 392.261719 121.09375 396.085938 124.777344 399.5625 128.796875 L 398.054688 130.097656 C 394.660156 126.175781 390.917969 122.570312 386.890625 119.332031 C 382.859375 116.085938 378.542969 113.203125 373.984375 110.722656 Z M 407.144531 138.917969 C 408.902344 141.652344 410.503906 144.476562 411.945312 147.367188 C 413.390625 150.269531 414.675781 153.253906 415.796875 156.308594 C 424.117188 178.972656 422.609375 202.886719 413.398438 223.328125 C 404.183594 243.769531 387.265625 260.742188 364.777344 269.519531 L 364.050781 267.664062 C 386.035156 259.082031 402.578125 242.496094 411.582031 222.511719 C 420.589844 202.53125 422.0625 179.15625 413.925781 157 C 412.832031 154.019531 411.574219 151.101562 410.160156 148.265625 C 408.75 145.421875 407.179688 142.660156 405.46875 140 Z M 335.667969 275.527344 C 319.457031 276.101562 303.734375 272.226562 290 264.726562 C 276.261719 257.222656 264.507812 246.085938 256.234375 232.140625 L 257.945312 231.125 C 266.035156 244.757812 277.527344 255.644531 290.953125 262.976562 C 304.378906 270.3125 319.75 274.097656 335.597656 273.535156 Z M 272.839844 265.015625 C 258.09375 253.75 247.140625 238.800781 240.734375 222.109375 C 234.328125 205.421875 232.464844 186.988281 235.882812 168.753906 L 240.78125 169.667969 C 237.535156 186.996094 239.300781 204.496094 245.382812 220.335938 C 251.460938 236.171875 261.859375 250.351562 275.863281 261.054688 Z M 243.9375 144.21875 C 245.382812 141.21875 246.980469 138.285156 248.722656 135.449219 C 250.46875 132.605469 252.363281 129.84375 254.386719 127.195312 C 261.433594 117.96875 270.007812 110.132812 279.660156 103.984375 C 289.300781 97.835938 300.015625 93.367188 311.355469 90.867188 L 312.429688 95.722656 C 301.664062 98.097656 291.488281 102.339844 282.335938 108.179688 C 273.1875 114.015625 265.046875 121.449219 258.355469 130.21875 C 256.429688 132.738281 254.636719 135.347656 252.980469 138.042969 C 251.328125 140.734375 249.808594 143.523438 248.429688 146.386719 Z M 325.84375 88.777344 C 331.714844 88.382812 337.601562 88.507812 343.429688 89.15625 C 349.257812 89.808594 355.035156 90.976562 360.664062 92.660156 L 359.238281 97.441406 C 353.882812 95.84375 348.402344 94.730469 342.878906 94.117188 C 337.34375 93.5 331.75 93.375 326.175781 93.757812 Z M 373.773438 97.621094 C 377.054688 99.136719 380.234375 100.824219 383.300781 102.667969 C 386.359375 104.515625 389.332031 106.539062 392.210938 108.738281 C 413.484375 124.984375 426.300781 148.25 429.847656 172.84375 C 433.390625 197.441406 427.664062 223.375 411.851562 244.964844 L 407.832031 242.023438 C 422.84375 221.523438 428.28125 196.898438 424.910156 173.546875 C 421.542969 150.195312 409.375 128.109375 389.1875 112.695312 C 386.488281 110.632812 383.660156 108.710938 380.722656 106.9375 C 377.789062 105.167969 374.773438 103.566406 371.683594 102.140625 Z M 388.207031 267.914062 C 373.386719 278.097656 356.375 283.832031 339.078125 284.988281 C 321.773438 286.140625 304.152344 282.726562 288.117188 274.605469 L 290.359375 270.15625 C 305.582031 277.859375 322.3125 281.113281 338.746094 280.011719 C 355.1875 278.914062 371.339844 273.476562 385.394531 263.816406 Z M 263.277344 141.332031 C 264.839844 138.957031 266.503906 136.683594 268.261719 134.53125 C 270.085938 132.292969 271.972656 130.195312 273.90625 128.261719 C 280.824219 121.347656 288.867188 115.761719 297.628906 111.695312 C 306.378906 107.632812 315.835938 105.097656 325.582031 104.277344 L 326.238281 112.234375 C 317.414062 112.976562 308.863281 115.269531 300.96875 118.9375 C 293.085938 122.597656 285.824219 127.648438 279.550781 133.910156 C 277.703125 135.761719 275.996094 137.644531 274.4375 139.554688 C 272.8125 141.546875 271.300781 143.601562 269.925781 145.699219 Z M 263.277344 141.332031 " fill-opacity="1" fill-rule="nonzero"/></g><g transform="matrix(1, 0, 0, 1, 278, 120)"><g clip-path="url(#2168c43f05)"><g fill="#ffb742" fill-opacity="1"><g transform="translate(0.162485, 95.351004)"><g><path d="M 62.875 -22.90625 C 63.957031 -20.613281 64.5 -18.289062 64.5 -15.9375 C 64.5 -13.632812 63.925781 -11.347656 62.78125 -9.078125 C 61.632812 -6.816406 59.769531 -4.8125 57.1875 -3.0625 C 54.601562 -1.3125 51.300781 -0.4375 47.28125 -0.4375 L 46.765625 -0.4375 C 46.421875 -0.375 46.078125 -0.34375 45.734375 -0.34375 L 11.109375 -0.34375 C 9.554688 -0.40625 8.25 -0.960938 7.1875 -2.015625 C 6.125 -3.078125 5.566406 -4.382812 5.515625 -5.9375 L 5.515625 -45.390625 C 5.566406 -46.929688 6.125 -48.234375 7.1875 -49.296875 C 8.25 -50.359375 9.554688 -50.921875 11.109375 -50.984375 L 40.734375 -50.984375 C 41.078125 -50.984375 41.421875 -50.953125 41.765625 -50.890625 L 42.28125 -50.890625 C 46.300781 -50.773438 49.601562 -49.859375 52.1875 -48.140625 C 54.769531 -46.421875 56.632812 -44.453125 57.78125 -42.234375 C 58.9375 -40.023438 59.515625 -37.800781 59.515625 -35.5625 C 59.515625 -33.269531 58.96875 -31.03125 57.875 -28.84375 C 57.8125 -28.726562 57.753906 -28.644531 57.703125 -28.59375 C 60.054688 -26.925781 61.78125 -25.03125 62.875 -22.90625 Z M 47.796875 -11.890625 C 48.890625 -11.828125 49.796875 -12.023438 50.515625 -12.484375 C 51.234375 -12.941406 51.765625 -13.472656 52.109375 -14.078125 C 52.453125 -14.679688 52.625 -15.300781 52.625 -15.9375 C 52.625 -16.332031 52.453125 -16.890625 52.109375 -17.609375 C 51.765625 -18.328125 51.234375 -18.914062 50.515625 -19.375 C 49.796875 -19.832031 48.890625 -20.09375 47.796875 -20.15625 L 17.140625 -20.15625 L 17.140625 -14.203125 C 17.140625 -12.660156 17.941406 -11.890625 19.546875 -11.890625 Z M 45.5625 -32.46875 C 46.25 -32.875 46.765625 -33.347656 47.109375 -33.890625 C 47.453125 -34.429688 47.625 -34.988281 47.625 -35.5625 C 47.625 -36.132812 47.453125 -36.691406 47.109375 -37.234375 C 46.765625 -37.785156 46.234375 -38.273438 45.515625 -38.703125 C 44.796875 -39.140625 43.890625 -39.382812 42.796875 -39.4375 L 19.546875 -39.4375 C 17.941406 -39.4375 17.140625 -38.664062 17.140625 -37.125 L 17.140625 -31.6875 L 42.796875 -31.6875 C 43.890625 -31.75 44.8125 -32.007812 45.5625 -32.46875 Z M 45.5625 -32.46875 "/></g></g></g><g fill="#ffb742" fill-opacity="1"><g transform="translate(68.434276, 95.351004)"><g><path d="M 42.796875 -50.984375 C 46.816406 -50.753906 50.117188 -49.21875 52.703125 -46.375 C 55.285156 -43.53125 57.148438 -40.300781 58.296875 -36.6875 C 59.453125 -33.070312 60.03125 -29.367188 60.03125 -25.578125 C 60.03125 -21.785156 59.46875 -18.082031 58.34375 -14.46875 C 57.226562 -10.851562 55.363281 -7.625 52.75 -4.78125 C 50.132812 -1.9375 46.816406 -0.398438 42.796875 -0.171875 L 11.109375 -0.171875 C 9.554688 -0.234375 8.25 -0.789062 7.1875 -1.84375 C 6.125 -2.90625 5.566406 -4.210938 5.515625 -5.765625 L 5.515625 -31.953125 L 17.140625 -31.953125 L 17.140625 -14.03125 C 17.140625 -12.488281 17.941406 -11.71875 19.546875 -11.71875 L 39.875 -11.71875 C 42.050781 -11.832031 43.859375 -12.660156 45.296875 -14.203125 C 46.734375 -15.753906 47.78125 -17.519531 48.4375 -19.5 C 49.101562 -21.488281 49.4375 -23.515625 49.4375 -25.578125 C 49.4375 -27.640625 49.101562 -29.660156 48.4375 -31.640625 C 47.78125 -33.628906 46.734375 -35.394531 45.296875 -36.9375 C 43.859375 -38.488281 42.050781 -39.320312 39.875 -39.4375 L 5.59375 -39.4375 L 5.59375 -50.984375 Z M 42.796875 -50.984375 "/></g></g></g></g></g><g transform="matrix(1, 0, 0, 1, 453, 130)"><g clip-path="url(#c9e3225612)"><g fill="#404040" fill-opacity="1"><g transform="translate(0.382806, 91.949392)"><g><path d="M 5.9375 0 L 5.9375 -68.640625 L 33.265625 -68.640625 C 38.265625 -68.640625 42.453125 -67.882812 45.828125 -66.375 C 49.210938 -64.875 51.753906 -62.796875 53.453125 -60.140625 C 55.160156 -57.484375 56.015625 -54.4375 56.015625 -51 C 56.015625 -48.320312 55.484375 -45.96875 54.421875 -43.9375 C 53.367188 -41.914062 51.910156 -40.257812 50.046875 -38.96875 C 48.191406 -37.675781 46.066406 -36.753906 43.671875 -36.203125 L 43.671875 -35.609375 C 46.304688 -35.484375 48.757812 -34.738281 51.03125 -33.375 C 53.3125 -32.007812 55.148438 -30.113281 56.546875 -27.6875 C 57.941406 -25.257812 58.640625 -22.375 58.640625 -19.03125 C 58.640625 -15.375 57.75 -12.109375 55.96875 -9.234375 C 54.1875 -6.359375 51.535156 -4.097656 48.015625 -2.453125 C 44.503906 -0.816406 40.15625 0 34.96875 0 Z M 20 -11.46875 L 32.390625 -11.46875 C 36.410156 -11.46875 39.378906 -12.257812 41.296875 -13.84375 C 43.210938 -15.425781 44.171875 -17.550781 44.171875 -20.21875 C 44.171875 -22.15625 43.707031 -23.859375 42.78125 -25.328125 C 41.863281 -26.804688 40.546875 -27.957031 38.828125 -28.78125 C 37.109375 -29.613281 35.066406 -30.03125 32.703125 -30.03125 L 20 -30.03125 Z M 20 -39.890625 L 31.421875 -39.890625 C 33.441406 -39.890625 35.234375 -40.242188 36.796875 -40.953125 C 38.367188 -41.660156 39.597656 -42.679688 40.484375 -44.015625 C 41.378906 -45.347656 41.828125 -46.921875 41.828125 -48.734375 C 41.828125 -51.285156 40.9375 -53.34375 39.15625 -54.90625 C 37.375 -56.476562 34.851562 -57.265625 31.59375 -57.265625 L 20 -57.265625 Z M 20 -39.890625 "/></g></g></g><g fill="#404040" fill-opacity="1"><g transform="translate(62.434529, 91.949392)"><g><path d="M 5.671875 0 L 5.671875 -50.859375 L 18.984375 -50.859375 L 18.984375 -42.0625 L 19.4375 -42.0625 C 20.363281 -45.164062 21.898438 -47.503906 24.046875 -49.078125 C 26.191406 -50.660156 28.738281 -51.453125 31.6875 -51.453125 C 32.425781 -51.453125 33.191406 -51.421875 33.984375 -51.359375 C 34.785156 -51.296875 35.476562 -51.207031 36.0625 -51.09375 L 36.0625 -38.921875 C 35.476562 -39.109375 34.609375 -39.253906 33.453125 -39.359375 C 32.304688 -39.472656 31.195312 -39.53125 30.125 -39.53125 C 28.101562 -39.53125 26.269531 -39.082031 24.625 -38.1875 C 22.976562 -37.300781 21.691406 -36.039062 20.765625 -34.40625 C 19.847656 -32.78125 19.390625 -30.863281 19.390625 -28.65625 L 19.390625 0 Z M 5.671875 0 "/></g></g></g><g fill="#404040" fill-opacity="1"><g transform="translate(100.62378, 91.949392)"><g><path d="M 5.671875 0 L 5.671875 -50.859375 L 19.390625 -50.859375 L 19.390625 0 Z M 12.53125 -57.4375 C 10.414062 -57.4375 8.613281 -58.128906 7.125 -59.515625 C 5.632812 -60.898438 4.890625 -62.585938 4.890625 -64.578125 C 4.890625 -66.578125 5.632812 -68.265625 7.125 -69.640625 C 8.613281 -71.023438 10.414062 -71.71875 12.53125 -71.71875 C 14.644531 -71.71875 16.441406 -71.023438 17.921875 -69.640625 C 19.398438 -68.265625 20.140625 -66.578125 20.140625 -64.578125 C 20.140625 -62.585938 19.398438 -60.898438 17.921875 -59.515625 C 16.441406 -58.128906 14.644531 -57.4375 12.53125 -57.4375 Z M 12.53125 -57.4375 "/></g></g></g><g fill="#404040" fill-opacity="1"><g transform="translate(125.684015, 91.949392)"><g><path d="M 28.515625 1.015625 C 23.421875 1.015625 19 -0.0820312 15.25 -2.28125 C 11.5 -4.476562 8.601562 -7.546875 6.5625 -11.484375 C 4.519531 -15.429688 3.5 -20.019531 3.5 -25.25 C 3.5 -30.5 4.519531 -35.101562 6.5625 -39.0625 C 8.601562 -43.019531 11.5 -46.097656 15.25 -48.296875 C 19 -50.492188 23.421875 -51.59375 28.515625 -51.59375 C 31.617188 -51.59375 34.46875 -51.1875 37.0625 -50.375 C 39.65625 -49.5625 41.945312 -48.382812 43.9375 -46.84375 C 45.9375 -45.3125 47.570312 -43.460938 48.84375 -41.296875 C 50.125 -39.128906 50.976562 -36.695312 51.40625 -34 L 38.515625 -32.15625 C 38.234375 -33.476562 37.816406 -34.660156 37.265625 -35.703125 C 36.710938 -36.742188 36.019531 -37.640625 35.1875 -38.390625 C 34.363281 -39.148438 33.40625 -39.726562 32.3125 -40.125 C 31.226562 -40.519531 30.007812 -40.71875 28.65625 -40.71875 C 26.226562 -40.71875 24.191406 -40.070312 22.546875 -38.78125 C 20.898438 -37.5 19.644531 -35.695312 18.78125 -33.375 C 17.925781 -31.050781 17.5 -28.359375 17.5 -25.296875 C 17.5 -22.253906 17.925781 -19.570312 18.78125 -17.25 C 19.644531 -14.9375 20.898438 -13.125 22.546875 -11.8125 C 24.191406 -10.507812 26.226562 -9.859375 28.65625 -9.859375 C 30.007812 -9.859375 31.226562 -10.066406 32.3125 -10.484375 C 33.40625 -10.898438 34.375 -11.488281 35.21875 -12.25 C 36.0625 -13.019531 36.765625 -13.945312 37.328125 -15.03125 C 37.898438 -16.125 38.3125 -17.363281 38.5625 -18.75 L 51.453125 -16.859375 C 51.054688 -14.128906 50.21875 -11.671875 48.9375 -9.484375 C 47.664062 -7.304688 46.03125 -5.425781 44.03125 -3.84375 C 42.039062 -2.257812 39.734375 -1.050781 37.109375 -0.21875 C 34.484375 0.601562 31.617188 1.015625 28.515625 1.015625 Z M 28.515625 1.015625 "/></g></g></g><g fill="#404040" fill-opacity="1"><g transform="translate(180.50328, 91.949392)"><g><path d="M 5.671875 0 L 5.671875 -50.859375 L 19.390625 -50.859375 L 19.390625 0 Z M 12.53125 -57.4375 C 10.414062 -57.4375 8.613281 -58.128906 7.125 -59.515625 C 5.632812 -60.898438 4.890625 -62.585938 4.890625 -64.578125 C 4.890625 -66.578125 5.632812 -68.265625 7.125 -69.640625 C 8.613281 -71.023438 10.414062 -71.71875 12.53125 -71.71875 C 14.644531 -71.71875 16.441406 -71.023438 17.921875 -69.640625 C 19.398438 -68.265625 20.140625 -66.578125 20.140625 -64.578125 C 20.140625 -62.585938 19.398438 -60.898438 17.921875 -59.515625 C 16.441406 -58.128906 14.644531 -57.4375 12.53125 -57.4375 Z M 12.53125 -57.4375 "/></g></g></g><g fill="#404040" fill-opacity="1"><g transform="translate(205.563516, 91.949392)"><g><path d="M 28.609375 1.015625 C 23.484375 1.015625 19.035156 -0.0820312 15.265625 -2.28125 C 11.503906 -4.476562 8.601562 -7.546875 6.5625 -11.484375 C 4.519531 -15.429688 3.5 -20.019531 3.5 -25.25 C 3.5 -30.53125 4.519531 -35.140625 6.5625 -39.078125 C 8.601562 -43.023438 11.503906 -46.097656 15.265625 -48.296875 C 19.035156 -50.492188 23.484375 -51.59375 28.609375 -51.59375 C 33.703125 -51.59375 38.128906 -50.492188 41.890625 -48.296875 C 45.660156 -46.097656 48.566406 -43.023438 50.609375 -39.078125 C 52.648438 -35.140625 53.671875 -30.53125 53.671875 -25.25 C 53.671875 -20.019531 52.648438 -15.429688 50.609375 -11.484375 C 48.566406 -7.546875 45.660156 -4.476562 41.890625 -2.28125 C 38.128906 -0.0820312 33.703125 1.015625 28.609375 1.015625 Z M 28.609375 -9.859375 C 31.003906 -9.859375 33.019531 -10.515625 34.65625 -11.828125 C 36.300781 -13.148438 37.550781 -14.972656 38.40625 -17.296875 C 39.269531 -19.617188 39.703125 -22.285156 39.703125 -25.296875 C 39.703125 -28.328125 39.269531 -30.992188 38.40625 -33.296875 C 37.550781 -35.609375 36.300781 -37.421875 34.65625 -38.734375 C 33.019531 -40.054688 31.003906 -40.71875 28.609375 -40.71875 C 26.210938 -40.71875 24.179688 -40.054688 22.515625 -38.734375 C 20.859375 -37.421875 19.609375 -35.609375 18.765625 -33.296875 C 17.921875 -30.992188 17.5 -28.328125 17.5 -25.296875 C 17.5 -22.285156 17.921875 -19.617188 18.765625 -17.296875 C 19.609375 -14.972656 20.851562 -13.148438 22.5 -11.828125 C 24.144531 -10.515625 26.179688 -9.859375 28.609375 -9.859375 Z M 28.609375 -9.859375 "/></g></g></g></g></g><g fill="#ffb742" fill-opacity="1"><g transform="translate(715.749686, 218.730785)"><g><path d="M 30.125 0 L 12.34375 0 L 12.34375 -12.0625 L 29.4375 -12.0625 C 33.882812 -12.0625 37.601562 -12.859375 40.59375 -14.453125 C 43.59375 -16.054688 45.84375 -18.507812 47.34375 -21.8125 C 48.851562 -25.113281 49.609375 -29.296875 49.609375 -34.359375 C 49.609375 -39.398438 48.851562 -43.5625 47.34375 -46.84375 C 45.84375 -50.132812 43.601562 -52.578125 40.625 -54.171875 C 37.644531 -55.765625 33.945312 -56.5625 29.53125 -56.5625 L 12.015625 -56.5625 L 12.015625 -68.640625 L 30.359375 -68.640625 C 37.265625 -68.640625 43.195312 -67.265625 48.15625 -64.515625 C 53.125 -61.765625 56.945312 -57.820312 59.625 -52.6875 C 62.3125 -47.5625 63.65625 -41.453125 63.65625 -34.359375 C 63.65625 -27.234375 62.316406 -21.109375 59.640625 -15.984375 C 56.972656 -10.859375 53.128906 -6.910156 48.109375 -4.140625 C 43.085938 -1.378906 37.09375 0 30.125 0 Z M 20.03125 -68.640625 L 20.03125 0 L 5.9375 0 L 5.9375 -68.640625 Z M 20.03125 -68.640625 "/></g></g></g><g fill="#ffb742" fill-opacity="1"><g transform="translate(783.423861, 218.730785)"><g><path d="M 28.703125 1.015625 C 23.515625 1.015625 19.035156 -0.0546875 15.265625 -2.203125 C 11.503906 -4.359375 8.601562 -7.398438 6.5625 -11.328125 C 4.519531 -15.265625 3.5 -19.890625 3.5 -25.203125 C 3.5 -30.453125 4.507812 -35.050781 6.53125 -39 C 8.5625 -42.945312 11.421875 -46.03125 15.109375 -48.25 C 18.796875 -50.476562 23.109375 -51.59375 28.046875 -51.59375 C 31.460938 -51.59375 34.628906 -51.039062 37.546875 -49.9375 C 40.460938 -48.832031 43.015625 -47.195312 45.203125 -45.03125 C 47.398438 -42.863281 49.101562 -40.160156 50.3125 -36.921875 C 51.53125 -33.679688 52.140625 -29.941406 52.140625 -25.703125 L 52.140625 -21.875 L 8.984375 -21.875 L 8.984375 -30.546875 L 45.46875 -30.546875 L 39.0625 -28.28125 C 39.0625 -30.925781 38.644531 -33.210938 37.8125 -35.140625 C 36.988281 -37.078125 35.769531 -38.578125 34.15625 -39.640625 C 32.539062 -40.703125 30.550781 -41.234375 28.1875 -41.234375 C 25.820312 -41.234375 23.8125 -40.691406 22.15625 -39.609375 C 20.5 -38.535156 19.234375 -37.0625 18.359375 -35.1875 C 17.484375 -33.320312 17.046875 -31.175781 17.046875 -28.75 L 17.046875 -22.671875 C 17.046875 -19.804688 17.535156 -17.375 18.515625 -15.375 C 19.503906 -13.382812 20.894531 -11.875 22.6875 -10.84375 C 24.476562 -9.820312 26.570312 -9.3125 28.96875 -9.3125 C 30.601562 -9.3125 32.085938 -9.546875 33.421875 -10.015625 C 34.753906 -10.492188 35.890625 -11.1875 36.828125 -12.09375 C 37.765625 -13 38.476562 -14.113281 38.96875 -15.4375 L 51.453125 -13.640625 C 50.660156 -10.691406 49.226562 -8.117188 47.15625 -5.921875 C 45.082031 -3.722656 42.484375 -2.015625 39.359375 -0.796875 C 36.242188 0.410156 32.691406 1.015625 28.703125 1.015625 Z M 28.703125 1.015625 "/></g></g></g><g fill="#ffb742" fill-opacity="1"><g transform="translate(837.185398, 218.730785)"><g><path d="M 20 0 L 1.25 -50.859375 L 15.796875 -50.859375 L 24.328125 -24.734375 C 25.367188 -21.515625 26.285156 -18.257812 27.078125 -14.96875 C 27.878906 -11.6875 28.679688 -8.296875 29.484375 -4.796875 L 26.484375 -4.796875 C 27.285156 -8.296875 28.078125 -11.679688 28.859375 -14.953125 C 29.640625 -18.222656 30.539062 -21.484375 31.5625 -24.734375 L 39.9375 -50.859375 L 54.359375 -50.859375 L 35.609375 0 Z M 20 0 "/></g></g></g></svg>