<svg xmlns="http://www.w3.org/2000/svg" xmlns:xlink="http://www.w3.org/1999/xlink" width="500" zoomAndPan="magnify" viewBox="0 0 375 374.999991" height="500" preserveAspectRatio="xMidYMid meet" version="1.0"><defs><g/><clipPath id="30ce8a4089"><path d="M 8.496094 8.496094 L 366.996094 8.496094 L 366.996094 366.996094 L 8.496094 366.996094 Z M 8.496094 8.496094 " clip-rule="nonzero"/></clipPath><clipPath id="8a5a214b70"><path d="M 12 11.363281 L 362 11.363281 L 362 362 L 12 362 Z M 12 11.363281 " clip-rule="nonzero"/></clipPath><clipPath id="cc954ad299"><rect x="0" width="238" y="0" height="215"/></clipPath></defs><g clip-path="url(#30ce8a4089)"><path fill="#ffb742" d="M 187.695312 8.496094 C 88.539062 8.496094 8.496094 88.539062 8.496094 187.695312 C 8.496094 286.851562 88.539062 366.890625 187.695312 366.890625 C 286.851562 366.890625 366.890625 286.851562 366.890625 187.695312 C 366.890625 88.539062 286.851562 8.496094 187.695312 8.496094 Z M 187.695312 350.964844 C 97.699219 350.964844 24.425781 277.691406 24.425781 187.695312 C 24.425781 97.699219 97.699219 24.425781 187.695312 24.425781 C 277.691406 24.425781 350.964844 97.699219 350.964844 187.695312 C 350.964844 277.691406 277.691406 350.964844 187.695312 350.964844 Z M 187.695312 350.964844 " fill-opacity="1" fill-rule="nonzero"/></g><g clip-path="url(#8a5a214b70)"><path fill="#ffb742" d="M 66.027344 211.550781 C 65.183594 207.453125 64.535156 203.300781 64.117188 199.148438 C 63.675781 194.898438 63.460938 190.699219 63.460938 186.59375 C 63.460938 172.03125 66.042969 157.671875 70.984375 144.167969 C 75.925781 130.664062 83.214844 118.019531 92.632812 106.882812 L 99.402344 112.613281 C 90.660156 122.960938 83.898438 134.679688 79.316406 147.191406 C 74.742188 159.699219 72.347656 173.027344 72.347656 186.59375 C 72.347656 190.566406 72.542969 194.457031 72.929688 198.242188 C 73.324219 202.125 73.917969 205.972656 74.707031 209.78125 Z M 82.6875 290.902344 C 62.996094 271.210938 49.6875 246.808594 43.492188 220.722656 C 37.285156 194.644531 38.191406 166.875 46.90625 140.429688 L 60.402344 144.867188 C 52.519531 168.765625 51.714844 193.875 57.316406 217.449219 C 62.921875 241.015625 74.949219 263.066406 92.738281 280.859375 Z M 202.203125 333.300781 C 182.617188 335.324219 163.050781 333.40625 144.589844 327.863281 C 126.125 322.324219 108.71875 313.132812 93.476562 300.632812 L 102.46875 289.691406 C 116.1875 300.945312 131.917969 309.230469 148.640625 314.253906 C 165.375 319.273438 183.078125 321.015625 200.761719 319.183594 Z M 38.820312 241 C 28.550781 213.039062 26.605469 183.363281 32.300781 155.242188 C 38.003906 127.128906 51.363281 100.558594 71.710938 78.796875 L 74.292969 81.207031 C 54.402344 102.480469 41.339844 128.449219 35.769531 155.933594 C 30.199219 183.417969 32.109375 212.429688 42.144531 239.777344 Z M 103.761719 52.496094 C 108.34375 49.652344 113.03125 47.0625 117.8125 44.730469 C 122.609375 42.390625 127.550781 40.289062 132.582031 38.433594 C 150.066406 32.015625 168.433594 28.785156 186.796875 28.769531 C 205.152344 28.75 223.519531 31.933594 241.023438 38.308594 L 239.8125 41.644531 C 222.683594 35.402344 204.734375 32.292969 186.796875 32.308594 C 168.863281 32.328125 150.910156 35.484375 133.800781 41.769531 C 128.894531 43.574219 124.070312 45.625 119.363281 47.921875 C 114.628906 50.226562 110.039062 52.765625 105.617188 55.507812 Z M 262.457031 47.984375 C 270.757812 52.503906 278.632812 57.75 285.949219 63.652344 C 293.277344 69.550781 300.082031 76.105469 306.269531 83.253906 L 303.589844 85.566406 C 297.542969 78.589844 290.890625 72.179688 283.726562 66.414062 C 276.550781 60.636719 268.867188 55.507812 260.761719 51.097656 Z M 319.757812 101.261719 C 322.886719 106.128906 325.738281 111.152344 328.300781 116.296875 C 330.875 121.464844 333.164062 126.773438 335.152344 132.207031 C 349.957031 172.53125 347.277344 215.082031 330.886719 251.453125 C 314.492188 287.824219 284.390625 318.019531 244.378906 333.640625 L 243.085938 330.339844 C 282.203125 315.070312 311.632812 285.558594 327.65625 250 C 343.683594 214.445312 346.300781 172.855469 331.828125 133.433594 C 329.882812 128.136719 327.640625 122.941406 325.128906 117.894531 C 322.617188 112.835938 319.820312 107.921875 316.78125 103.1875 Z M 192.582031 344.328125 C 163.742188 345.351562 135.765625 338.457031 111.328125 325.113281 C 86.882812 311.757812 65.972656 291.941406 51.246094 267.128906 L 54.296875 265.328125 C 68.6875 289.582031 89.132812 308.953125 113.023438 322 C 136.914062 335.046875 164.261719 341.78125 192.457031 340.785156 Z M 80.792969 325.621094 C 54.554688 305.582031 35.070312 278.984375 23.671875 249.285156 C 12.273438 219.59375 8.957031 186.789062 15.039062 154.347656 L 23.753906 155.980469 C 17.976562 186.808594 21.117188 217.941406 31.941406 246.128906 C 42.753906 274.304688 61.253906 299.535156 86.175781 318.574219 Z M 29.367188 110.695312 C 31.941406 105.359375 34.785156 100.140625 37.886719 95.089844 C 40.988281 90.03125 44.359375 85.117188 47.964844 80.402344 C 60.5 63.992188 75.753906 50.046875 92.925781 39.105469 C 110.082031 28.167969 129.148438 20.214844 149.324219 15.765625 L 151.234375 24.410156 C 132.078125 28.632812 113.972656 36.183594 97.6875 46.566406 C 81.414062 56.953125 66.929688 70.179688 55.023438 85.78125 C 51.597656 90.265625 48.40625 94.910156 45.464844 99.707031 C 42.523438 104.496094 39.8125 109.457031 37.367188 114.550781 Z M 175.105469 12.050781 C 185.550781 11.34375 196.023438 11.570312 206.390625 12.726562 C 216.765625 13.882812 227.042969 15.960938 237.058594 18.957031 L 234.523438 27.46875 C 224.988281 24.625 215.242188 22.644531 205.414062 21.550781 C 195.566406 20.457031 185.613281 20.230469 175.695312 20.914062 Z M 260.382812 27.78125 C 266.222656 30.480469 271.878906 33.484375 277.332031 36.765625 C 282.777344 40.046875 288.066406 43.652344 293.1875 47.5625 C 331.039062 76.472656 353.839844 117.867188 360.15625 161.628906 C 366.457031 205.390625 356.273438 251.535156 328.132812 289.949219 L 320.984375 284.714844 C 347.691406 248.242188 357.367188 204.429688 351.367188 162.875 C 345.375 121.328125 323.730469 82.035156 287.804688 54.601562 C 283.007812 50.933594 277.976562 47.519531 272.75 44.363281 C 267.53125 41.214844 262.160156 38.363281 256.664062 35.824219 Z M 286.066406 330.777344 C 259.695312 348.902344 229.429688 359.105469 198.652344 361.160156 C 167.859375 363.214844 136.507812 357.132812 107.976562 342.6875 L 111.964844 334.769531 C 139.054688 348.480469 168.816406 354.265625 198.0625 352.308594 C 227.3125 350.355469 256.050781 340.679688 281.0625 323.488281 Z M 63.785156 105.554688 C 66.5625 101.332031 69.523438 97.289062 72.652344 93.457031 C 75.898438 89.476562 79.253906 85.746094 82.695312 82.304688 C 95 70 109.3125 60.0625 124.90625 52.828125 C 140.472656 45.597656 157.296875 41.089844 174.636719 39.628906 L 175.804688 53.785156 C 160.101562 55.105469 144.894531 59.183594 130.839844 65.714844 C 116.816406 72.222656 103.894531 81.207031 92.738281 92.355469 C 89.449219 95.644531 86.410156 99 83.636719 102.398438 C 80.75 105.941406 78.058594 109.597656 75.613281 113.328125 Z M 63.785156 105.554688 " fill-opacity="1" fill-rule="nonzero"/></g><g transform="matrix(1, 0, 0, 1, 90, 69)"><g clip-path="url(#cc954ad299)"><g fill="#ffb742" fill-opacity="1"><g transform="translate(0.2686, 168.251518)"><g><path d="M 111.84375 -40.75 C 113.78125 -36.664062 114.75 -32.53125 114.75 -28.34375 C 114.75 -24.257812 113.726562 -20.195312 111.6875 -16.15625 C 109.644531 -12.125 106.328125 -8.550781 101.734375 -5.4375 C 97.140625 -2.320312 91.265625 -0.765625 84.109375 -0.765625 L 83.1875 -0.765625 C 82.582031 -0.660156 81.972656 -0.609375 81.359375 -0.609375 L 19.765625 -0.609375 C 17.003906 -0.710938 14.675781 -1.707031 12.78125 -3.59375 C 10.894531 -5.488281 9.90625 -7.816406 9.8125 -10.578125 L 9.8125 -80.75 C 9.90625 -83.5 10.894531 -85.816406 12.78125 -87.703125 C 14.675781 -89.597656 17.003906 -90.597656 19.765625 -90.703125 L 72.46875 -90.703125 C 73.082031 -90.703125 73.695312 -90.648438 74.3125 -90.546875 L 75.234375 -90.546875 C 82.378906 -90.347656 88.25 -88.710938 92.84375 -85.640625 C 97.4375 -82.578125 100.753906 -79.078125 102.796875 -75.140625 C 104.847656 -71.210938 105.875 -67.257812 105.875 -63.28125 C 105.875 -59.195312 104.898438 -55.210938 102.953125 -51.328125 C 102.859375 -51.117188 102.757812 -50.960938 102.65625 -50.859375 C 106.84375 -47.898438 109.90625 -44.53125 111.84375 -40.75 Z M 85.03125 -21.140625 C 86.96875 -21.035156 88.578125 -21.390625 89.859375 -22.203125 C 91.140625 -23.023438 92.082031 -23.972656 92.6875 -25.046875 C 93.300781 -26.117188 93.609375 -27.21875 93.609375 -28.34375 C 93.609375 -29.0625 93.300781 -30.054688 92.6875 -31.328125 C 92.082031 -32.609375 91.140625 -33.65625 89.859375 -34.46875 C 88.578125 -35.289062 86.96875 -35.753906 85.03125 -35.859375 L 30.484375 -35.859375 L 30.484375 -25.28125 C 30.484375 -22.519531 31.914062 -21.140625 34.78125 -21.140625 Z M 81.046875 -57.765625 C 82.273438 -58.472656 83.195312 -59.3125 83.8125 -60.28125 C 84.425781 -61.257812 84.734375 -62.257812 84.734375 -63.28125 C 84.734375 -64.300781 84.425781 -65.296875 83.8125 -66.265625 C 83.195312 -67.234375 82.25 -68.097656 80.96875 -68.859375 C 79.695312 -69.628906 78.085938 -70.066406 76.140625 -70.171875 L 34.78125 -70.171875 C 31.914062 -70.171875 30.484375 -68.789062 30.484375 -66.03125 L 30.484375 -56.375 L 76.140625 -56.375 C 78.085938 -56.476562 79.722656 -56.941406 81.046875 -57.765625 Z M 81.046875 -57.765625 "/></g></g></g><g fill="#ffb742" fill-opacity="1"><g transform="translate(121.739057, 168.251518)"><g><path d="M 76.140625 -90.703125 C 83.296875 -90.296875 89.171875 -87.5625 93.765625 -82.5 C 98.359375 -77.445312 101.675781 -71.703125 103.71875 -65.265625 C 105.769531 -58.828125 106.796875 -52.238281 106.796875 -45.5 C 106.796875 -38.757812 105.796875 -32.171875 103.796875 -25.734375 C 101.804688 -19.304688 98.488281 -13.5625 93.84375 -8.5 C 89.195312 -3.445312 83.296875 -0.71875 76.140625 -0.3125 L 19.765625 -0.3125 C 17.003906 -0.40625 14.675781 -1.394531 12.78125 -3.28125 C 10.894531 -5.175781 9.90625 -7.503906 9.8125 -10.265625 L 9.8125 -56.84375 L 30.484375 -56.84375 L 30.484375 -24.96875 C 30.484375 -22.21875 31.914062 -20.84375 34.78125 -20.84375 L 70.9375 -20.84375 C 74.820312 -21.039062 78.039062 -22.519531 80.59375 -25.28125 C 83.144531 -28.039062 85.003906 -31.179688 86.171875 -34.703125 C 87.347656 -38.222656 87.9375 -41.820312 87.9375 -45.5 C 87.9375 -49.175781 87.347656 -52.773438 86.171875 -56.296875 C 85.003906 -59.828125 83.144531 -62.96875 80.59375 -65.71875 C 78.039062 -68.476562 74.820312 -69.960938 70.9375 -70.171875 L 9.953125 -70.171875 L 9.953125 -90.703125 Z M 76.140625 -90.703125 "/></g></g></g></g></g></svg>